# xmcd CD database file
#
# Track frame offsets:
#	150
#	12296
#	28685
#	40753
#	63231
#	76405
#	89723
#	107327
#	128447
#	142025
#	174010
#	196068
#
# Disc length: 2841 seconds
#
# Revision: 0
# Processed by: cddbd v1.5.2PL0 Copyright (c) Steve Scherf et al.
# Submitted via: CDex 1.70beta3
#
DISCID=8c0b170c
DTITLE=ハッチハッチェルバンド - クダラナの友3月号
DYEAR=2006
DGENRE=Jazz
TTITLE0=ホープマイシガレット
TTITLE1=ナポリの朝
TTITLE2=天使とともに
TTITLE3=そりゃあんまりだ
TTITLE4=いとしのかわいコちゃん
TTITLE5=ハングリー精神のうた
TTITLE6=花嫁のころ
TTITLE7=うるわしき人生、長いまつり
TTITLE8=さあ、宴会だ
TTITLE9=スウィングしてるのに意味が無い
TTITLE10=クダラナ音頭
TTITLE11=お正月だヨ、大馬鹿歌合戦のテーマ
EXTD=YEAR: 2006
EXTT0=
EXTT1=
EXTT2=
EXTT3=
EXTT4=
EXTT5=
EXTT6=
EXTT7=
EXTT8=
EXTT9=
EXTT10=
EXTT11=
PLAYORDER=
